<svg width="63" height="63" viewBox="0 0 63 63" fill="none" xmlns="http://www.w3.org/2000/svg">
<path d="M36.75 39.6919H26.25L27.5704 38.6539C29.3523 37.2527 29.896 34.8184 28.875 32.8126L28.7175 32.4454L30.352 31.9526H32.9219L34.2816 32.4462L34.125 32.8126C33.1047 34.8184 33.6487 37.2522 35.4305 38.6531L36.75 39.6919Z" fill="#FBB540"/>
<path d="M36.75 43.9917H26.25V39.6921L27.125 39.3696H35.875L36.75 39.6921V43.9917Z" fill="#FBB540"/>
<path d="M30.352 31.9526L28.7192 32.4462L28.8759 32.8126C29.2287 33.5111 29.4009 34.2843 29.3772 35.0638C30.7811 35.4262 32.2638 35.362 33.6297 34.8798C33.6337 34.1627 33.8033 33.4559 34.1259 32.8126L34.2834 32.4454L32.9227 31.9526H30.352Z" fill="#EA9D2D"/>
<path d="M26.25 41.4116H36.75V44.8513H26.25V41.4116Z" fill="#EA9D2D"/>
<path d="M26.25 39.375H36.75V49.875H26.25V39.375Z" fill="#5D62B5"/>
<path d="M26.25 42H36.75V44.625H26.25V42Z" fill="#50559F"/>
<path d="M26.25 47.25H36.75V49.875H26.25V47.25Z" fill="#50559F"/>
<path d="M18.375 47.25H44.625V57.75H18.375V47.25Z" fill="#5D62B5"/>
<path d="M19.7324 50.0107H21.5428V57.75H19.7324V50.0107Z" fill="#50559F"/>
<path d="M23.3535 50.0107H25.1639V57.75H23.3535V50.0107Z" fill="#50559F"/>
<path d="M37.8369 50.0107H39.6473V57.75H37.8369V50.0107Z" fill="#50559F"/>
<path d="M41.4565 50.0107H43.2669V57.75H41.4565V50.0107Z" fill="#50559F"/>
<path d="M19.7324 11.3145H44.1721V14.7541H19.7324V11.3145Z" fill="#FBB540"/>
<path d="M41.4561 25.0731V21.6334H43.2664C46.7641 21.6297 49.5986 18.9368 49.6026 15.614V14.7541H42.3612V11.3145H51.413C52.4128 11.3145 53.2233 12.0844 53.2233 13.0343V15.614C53.2169 20.8355 48.7627 25.0669 43.2664 25.0731H41.4561Z" fill="#FBB540"/>
<path d="M21.5431 25.0731V21.6334H19.7328C16.2351 21.6297 13.4005 18.9368 13.3966 15.614V14.7541H20.6379V11.3145H11.5862C10.5863 11.3145 9.77588 12.0844 9.77588 13.0343V15.614C9.78233 20.8355 14.2365 25.0669 19.7328 25.0731H21.5431Z" fill="#FBB540"/>
<path d="M20.6387 7.875H42.3628V22.4935C42.3628 28.1925 37.4997 32.8125 31.5007 32.8125C25.5018 32.8125 20.6387 28.1925 20.6387 22.4935V7.875Z" fill="#FBB540"/>
<path d="M20.6387 7.875H42.3628V13.0345H20.6387V7.875Z" fill="#FBB540"/>
<path d="M23.625 13.125H39.375V15.75H23.625V13.125Z" fill="#EA9D2D"/>
</svg>
